<?xml version="1.0" encoding="iso-8859-1"?>
<!-- Generator: Adobe Illustrator 19.0.0, SVG Export Plug-In . SVG Version: 6.00 Build 0)  -->
<svg version="1.1" id="Capa_1" xmlns="http://www.w3.org/2000/svg" xmlns:xlink="http://www.w3.org/1999/xlink" x="0px" y="0px"
	 viewBox="0 0 512 512" style="enable-background:new 0 0 512 512;" xml:space="preserve">
<circle style="fill:#8D24A9;" cx="256" cy="256" r="256"/>
<path style="fill:#6A1B99;" d="M512,256c0-17.874-1.838-35.317-5.324-52.157l-116.01-116.01L121.333,424.167l82.51,82.51
	C220.683,510.162,238.127,512,256,512C397.385,512,512,397.385,512,256z"/>
<rect x="121.33" y="87.83" style="fill:#FFFFFF;" width="269.33" height="336.33"/>
<rect x="255.95" y="87.83" style="fill:#E0E0E0;" width="134.71" height="336.33"/>
<polygon style="fill:#FE5722;" points="193.63,256.13 179.487,241.988 242.775,178.7 281.35,217.275 339.394,159.23 
	353.537,173.372 281.35,245.559 242.775,206.984 "/>
<polygon style="fill:#E54A19;" points="302.944,151.51 302.944,171.51 327.114,171.51 281.35,217.275 255.952,191.878 
	255.952,220.162 281.35,245.559 340.746,186.163 340.746,209.312 360.746,209.312 360.746,151.51 "/>
<g>
	<rect x="148" y="121" style="fill:#546E7A;" width="20" height="197"/>
	<rect x="132" y="282.5" style="fill:#546E7A;" width="239" height="20"/>
</g>
<rect x="255.95" y="282.5" style="fill:#455A64;" width="115.05" height="20"/>
<rect x="159.67" y="342.33" style="fill:#E0E0E0;" width="154.67" height="20"/>
<rect x="255.95" y="342.33" style="fill:#C0C0C0;" width="58.38" height="20"/>
<rect x="159.67" y="377.67" style="fill:#E0E0E0;" width="94" height="20"/>
<g>
</g>
<g>
</g>
<g>
</g>
<g>
</g>
<g>
</g>
<g>
</g>
<g>
</g>
<g>
</g>
<g>
</g>
<g>
</g>
<g>
</g>
<g>
</g>
<g>
</g>
<g>
</g>
<g>
</g>
</svg>
